<?xml version="1.0" encoding="iso-8859-1"?>
<!-- Generator: Adobe Illustrator 19.0.0, SVG Export Plug-In . SVG Version: 6.00 Build 0)  -->
<svg version="1.1" id="Capa_1" xmlns="http://www.w3.org/2000/svg" xmlns:xlink="http://www.w3.org/1999/xlink" x="0px" y="0px"
	 viewBox="0 0 512 512" style="enable-background:new 0 0 512 512;" xml:space="preserve" width="20" height="20">
<polygon style="fill:#965353;" points="56.172,456.736 49.753,443.328 148.602,387.783 155.88,384.418 169.393,413.451 
	162.116,416.81 "/>
<g>
	<polygon style="fill:#FFCE54;" points="171.794,377.007 155.88,384.418 128.576,325.827 134.815,323.352 	"/>
	<polygon style="fill:#FFCE54;" points="202.648,468.879 196.689,472.042 169.393,413.451 184.906,406.229 	"/>
	<path style="fill:#FFCE54;" d="M215.935,475.501c2.795,5.997,0.238,13.189-5.759,15.993c-6.079,2.795-13.193,0.156-15.992-5.842
		c-2.8-5.997-0.16-13.111,5.837-15.906C206.017,466.942,213.135,469.504,215.935,475.501z"/>
	<path style="fill:#FFCE54;" d="M138.287,308.772c2.8,5.997,0.242,13.197-5.755,15.993c-5.998,2.803-13.193,0.164-15.993-5.834
		c-2.799-5.997-0.16-13.11,5.837-15.914C128.373,300.222,135.491,302.775,138.287,308.772z"/>
</g>
<g style="opacity:0.5;">
	<path style="fill:#FFFFFF;" d="M121.822,315.332c2.26-6.216,9.16-9.379,15.379-7.121c0.398,0.148,0.75,0.359,1.125,0.546
		c-1.3-2.788-3.662-5.067-6.778-6.2c-6.224-2.257-13.119,0.906-15.38,7.122c-2.12,5.841,0.617,12.268,6.095,14.915
		C120.939,321.782,120.685,318.464,121.822,315.332z"/>
</g>
<g style="opacity:0.2;">
	<path d="M133.214,312.381c-2.264,6.224-9.159,9.386-15.379,7.121c-0.402-0.141-0.75-0.359-1.125-0.539
		c1.3,2.78,3.662,5.061,6.778,6.193c6.22,2.264,13.119-0.898,15.38-7.122c2.12-5.833-0.621-12.26-6.099-14.915
		C134.093,305.938,134.351,309.249,133.214,312.381z"/>
</g>
<g style="opacity:0.5;">
	<path style="fill:#FFFFFF;" d="M199.922,482.084c2.261-6.216,9.16-9.379,15.38-7.121c0.398,0.147,0.75,0.358,1.124,0.546
		c-1.3-2.788-3.662-5.067-6.778-6.2c-6.224-2.257-13.119,0.906-15.379,7.122c-2.12,5.841,0.617,12.268,6.095,14.915
		C199.04,488.534,198.786,485.215,199.922,482.084z"/>
</g>
<g style="opacity:0.2;">
	<path d="M211.316,479.133c-2.265,6.223-9.16,9.386-15.38,7.121c-0.402-0.141-0.75-0.359-1.125-0.539
		c1.3,2.78,3.663,5.061,6.778,6.193c6.22,2.264,13.119-0.898,15.38-7.122c2.12-5.833-0.621-12.261-6.099-14.915
		C212.194,472.689,212.452,476.001,211.316,479.133z"/>
</g>
<path style="fill:#FFCE54;" d="M55.606,454.55c2.401,10.714-2.96,22.067-13.354,26.87c-3.28,1.516-6.716,2.233-10.077,2.233
	c-9.035,0-17.672-5.114-21.748-13.829c-5.599-12.072-0.398-26.309,11.596-31.907s26.304-0.398,31.903,11.596
	C54.645,451.191,55.286,452.793,55.606,454.55z"/>
<g style="opacity:0.2;">
	<path d="M56.172,456.736l7.848-2.96c0.215-2.39,0.121-4.817-0.418-7.223c-0.32-1.757-0.96-3.358-1.679-5.037
		c-0.633-1.358-1.406-2.593-2.245-3.771l-9.925,5.583L56.172,456.736z"/>
</g>
<g style="opacity:0.2;">
	<path d="M52.767,441.634l-3.014,1.694L52.767,441.634z"/>
</g>
<g style="opacity:0.2;">
	<path d="M166.329,406.868l-4.213,1.944l-98.662,37.187c0.039,0.188,0.113,0.359,0.148,0.555c0.539,2.405,0.633,4.833,0.418,7.223
		l-7.848,2.96l105.944-39.927l7.277-3.358L166.329,406.868z"/>
</g>
<g style="opacity:0.3;">
	<path style="fill:#FFFFFF;" d="M155.88,384.418l-7.278,3.365l-88.924,49.962c0.839,1.179,1.612,2.413,2.245,3.771
		c0.351,0.82,0.679,1.616,0.964,2.429l85.715-48.166l10.39-4.669L155.88,384.418z"/>
</g>
<g style="opacity:0.5;">
	<path style="fill:#FFFFFF;" d="M15.276,457.127c4.576-12.494,18.32-18.883,30.759-14.361c2.136,0.781,4.021,1.914,5.779,3.187
		c-2.729-3.92-6.614-7.091-11.432-8.84c-12.439-4.521-26.184,1.866-30.76,14.36c-3.279,9.043-0.792,18.773,5.596,25.16
		c0.894,0.898,1.94,1.648,2.986,2.406C13.882,472.846,12.508,464.756,15.276,457.127z"/>
</g>
<g style="opacity:0.2;">
	<path d="M34.721,476.571c12.495-4.576,18.886-18.32,14.361-30.76c-0.781-2.132-1.909-4.021-3.183-5.778
		c3.917,2.732,7.083,6.614,8.836,11.432c4.525,12.439-1.866,26.184-14.36,30.76c-9.043,3.279-18.772,0.797-25.16-5.592
		c-0.895-0.897-1.648-1.943-2.401-2.99C19.001,477.961,27.091,479.343,34.721,476.571z"/>
</g>
<path style="fill:#E6E9ED;" d="M459.187,56.014c39.896-38.225,44.136-49.423,44.534-51.422
	c-0.883,11.674-25.512,273.641-298.102,391.906l-7.2,3.357l-13.514-28.947l7.278-3.357c0,0,199.673-123.467,205.108-281.949
	C397.292,85.602,423.202,90.396,459.187,56.014z"/>
<polygon style="fill:#FFCE54;" points="198.419,399.855 169.393,413.451 155.88,384.418 184.906,370.908 "/>
<path style="fill:#FFFFFF;" d="M503.721,4.592c-0.297,1.491-2.749,8.105-20.452,27.159l-6.419,28.417
	c-21.661,81.408-84.359,230.293-260.915,314.098l7.68,13.9C479.177,266.417,502.861,16,503.721,4.592z"/>
<g>
	<path style="fill:#3A3847;" d="M32.175,487.652c-10.827,0-20.784-6.334-25.372-16.134c-6.5-14.017-0.429-30.712,13.529-37.226
		c3.737-1.741,7.712-2.623,11.812-2.623c10.854,0,20.826,6.341,25.406,16.148c0.812,1.897,1.589,3.811,1.987,6.013
		c2.815,12.542-3.737,25.738-15.61,31.221C40.195,486.777,36.24,487.652,32.175,487.652z M32.144,439.666
		c-2.925,0-5.759,0.633-8.43,1.874c-9.973,4.654-14.307,16.586-9.66,26.597c4.502,9.613,16.688,14.205,26.52,9.652
		c8.477-3.912,13.158-13.322,11.131-22.365c-0.285-1.538-0.847-2.928-1.453-4.342C47.032,444.195,39.906,439.666,32.144,439.666z"/>
	<path style="fill:#3A3847;" d="M57.769,442.953c-1.398,0-2.753-0.733-3.487-2.03c-1.085-1.929-0.402-4.364,1.519-5.45
		l90.837-51.172c1.925-1.094,4.361-0.398,5.447,1.515c1.085,1.929,0.402,4.365-1.519,5.451l-90.837,51.172
		C59.108,442.789,58.433,442.953,57.769,442.953z"/>
	<path style="fill:#3A3847;" d="M64.562,457.432c-1.617,0-3.139-0.992-3.745-2.593c-0.772-2.069,0.273-4.373,2.339-5.154
		l97.553-36.624c2.065-0.765,4.365,0.273,5.15,2.343c0.773,2.069-0.273,4.373-2.339,5.146l-97.553,36.624
		C65.503,457.346,65.031,457.432,64.562,457.432z"/>
	<path style="fill:#3A3847;" d="M169.393,417.449c-0.464,0-0.925-0.086-1.37-0.242c-0.996-0.366-1.808-1.108-2.253-2.068
		l-13.513-29.034c-0.933-1.999-0.066-4.381,1.937-5.31l29.026-13.51c2.011-0.93,4.377-0.07,5.31,1.929l13.513,28.948
		c0.246,0.53,0.375,1.108,0.375,1.693c0,1.555-0.902,3.046-2.312,3.702l-29.026,13.517
		C170.549,417.324,169.971,417.449,169.393,417.449z M161.19,386.354l10.14,21.779l21.806-10.144l-10.163-21.771L161.19,386.354z"/>
	<path style="fill:#3A3847;" d="M152.526,381.146c-1.507,0-2.951-0.858-3.627-2.312l-20.233-43.503
		c-0.933-1.999-0.066-4.381,1.937-5.311c2.015-0.929,4.385-0.055,5.31,1.937l20.233,43.504c0.933,1.999,0.066,4.381-1.937,5.311
		C153.663,381.021,153.088,381.146,152.526,381.146z"/>
	<path style="fill:#3A3847;" d="M167,374.422c-1.273,0-2.526-0.608-3.303-1.733l-27.507-40.146c-1.246-1.819-0.781-4.311,1.039-5.56
		c1.827-1.242,4.311-0.781,5.56,1.038l27.507,40.146c1.245,1.818,0.781,4.311-1.039,5.56
		C168.566,374.196,167.777,374.422,167,374.422z"/>
	<path style="fill:#3A3847;" d="M127.495,329.889c-6.231,0-11.952-3.64-14.579-9.27c-1.808-3.865-1.987-8.207-0.508-12.221
		c1.472-3.999,4.412-7.2,8.277-9.004c7.77-3.631,17.629-0.031,21.225,7.691c1.804,3.865,2.003,8.207,0.562,12.236
		c-1.448,4.045-4.381,7.263-8.25,9.066C132.098,329.381,129.833,329.889,127.495,329.889z M127.459,305.884
		c-1.171,0-2.315,0.257-3.393,0.757c-1.94,0.906-3.417,2.515-4.154,4.514s-0.648,4.162,0.25,6.083
		c1.812,3.874,6.766,5.748,10.679,3.905c1.921-0.891,3.381-2.499,4.104-4.521c0.726-2.023,0.625-4.209-0.281-6.154
		C133.367,307.68,130.54,305.884,127.459,305.884z"/>
	<path style="fill:#3A3847;" d="M192.988,468.145c-1.511,0-2.951-0.858-3.631-2.318l-20.229-43.496
		c-0.933-1.999-0.066-4.381,1.937-5.311c2.007-0.929,4.381-0.055,5.31,1.938l20.237,43.503c0.929,2.007,0.059,4.381-1.944,5.311
		C194.125,468.028,193.55,468.145,192.988,468.145z"/>
	<path style="fill:#3A3847;" d="M200.254,464.787c-1.749,0-3.358-1.163-3.85-2.928l-13.033-46.861
		c-0.59-2.125,0.656-4.326,2.784-4.92c2.097-0.578,4.334,0.656,4.923,2.779l13.033,46.861c0.59,2.125-0.656,4.326-2.784,4.92
		C200.973,464.74,200.61,464.787,200.254,464.787z"/>
	<path style="fill:#3A3847;" d="M205.104,496.608L205.104,496.608c-6.208,0-11.917-3.639-14.544-9.261
		c-1.808-3.873-1.987-8.215-0.507-12.229c1.472-3.998,4.412-7.191,8.277-8.995c7.773-3.632,17.621-0.031,21.229,7.684
		c3.74,8.027,0.289,17.586-7.692,21.311C209.707,496.109,207.438,496.608,205.104,496.608z M205.104,472.611
		c-1.172,0-2.315,0.25-3.394,0.758c-1.944,0.906-3.416,2.507-4.154,4.514c-0.738,1.999-0.648,4.154,0.25,6.083
		c1.32,2.819,4.182,4.646,7.298,4.646l0,0c1.171,0,2.315-0.25,3.4-0.75c3.967-1.858,5.685-6.646,3.807-10.675
		C211.011,474.408,208.184,472.611,205.104,472.611z"/>
	<path style="fill:#3A3847;" d="M182.426,398.092c-0.453,0-0.913-0.078-1.366-0.242l-10.663-3.928
		c-2.069-0.766-3.12-3.069-2.347-5.139c0.77-2.069,3.084-3.116,5.142-2.351l10.601,3.904c2.073,0.758,3.146,3.046,2.389,5.123
		C185.593,397.084,184.059,398.092,182.426,398.092z"/>
	<path style="fill:#3A3847;" d="M175.231,401.457c-0.453,0-0.918-0.078-1.367-0.242c-2.077-0.758-3.146-3.053-2.389-5.123
		l3.83-10.62c0.746-2.077,3.03-3.162,5.111-2.413c2.077,0.742,3.163,3.03,2.417,5.107l-3.846,10.659
		C178.397,400.449,176.863,401.457,175.231,401.457z"/>
	<path style="fill:#3A3847;" d="M95.533,512c-15.571,0-34.27-4.568-52.531-20.279c-1.671-1.438-1.862-3.959-0.421-5.639
		c1.437-1.663,3.967-1.858,5.638-0.422c22.908,19.702,46.525,20.03,62.265,16.812c26.734-5.427,52.214-25.535,64.923-51.219
		c0.984-1.975,3.374-2.795,5.357-1.812c1.979,0.984,2.792,3.382,1.812,5.357c-13.763,27.815-41.434,49.603-70.499,55.514
		C107.176,511.312,101.588,512,95.533,512z"/>
	<path style="fill:#3A3847;" d="M205.623,400.496c-1.546,0-3.018-0.897-3.67-2.404c-0.878-2.031,0.051-4.381,2.073-5.264
		C476.358,274.679,498.902,15.282,499.729,4.295c0.164-2.21,2.109-3.896,4.295-3.686c2.203,0.164,3.851,2.085,3.687,4.287
		c-0.844,11.182-23.786,275.218-300.499,395.264C206.693,400.387,206.154,400.496,205.623,400.496z"/>
	<path style="fill:#3A3847;" d="M215.938,378.265c-1.496,0-2.932-0.844-3.616-2.288c-0.948-1.991-0.098-4.381,1.897-5.326
		c175.123-83.126,237.297-230.847,258.772-311.506c0.57-2.14,2.796-3.365,4.889-2.842c2.14,0.569,3.404,2.764,2.843,4.896
		c-21.834,81.994-85.04,232.175-263.075,316.676C217.094,378.14,216.512,378.265,215.938,378.265z"/>
	<path style="fill:#3A3847;" d="M192.188,371.549c-1.34,0-2.647-0.672-3.405-1.897c-1.159-1.874-0.582-4.342,1.297-5.506
		C192.059,362.928,388,239.96,393.294,85.461c0.039-1.164,0.578-2.249,1.492-2.976c0.913-0.733,2.085-1.015,3.225-0.819
		c0.219,0.031,24.63,3.732,58.411-28.542C497.021,14.228,499.706,4.209,499.8,3.803c0-2.21,1.789-3.803,4.007-3.803
		c2.202,0,3.998,1.983,3.998,4.193c0,0.445-0.156,1.281-0.305,1.702c-0.586,3.101-6.474,15.571-45.55,53
		c-28.713,27.433-51.516,30.876-60.847,30.931c-8.684,156.842-204.82,279.888-206.815,281.121
		C193.632,371.354,192.906,371.549,192.188,371.549z"/>
</g>
<g>
</g>
<g>
</g>
<g>
</g>
<g>
</g>
<g>
</g>
<g>
</g>
<g>
</g>
<g>
</g>
<g>
</g>
<g>
</g>
<g>
</g>
<g>
</g>
<g>
</g>
<g>
</g>
<g>
</g>
</svg>
