<svg width="20" height="20" viewBox="0 0 512 512" xmlns="http://www.w3.org/2000/svg"><path d="m10 346h492v80h-492zm0 0" fill="#c8e7f9"/><path d="m408 502h54l-40-76h-331l-40 76h54l18.945312-36h265.109376zm0 0" fill="#8397aa"/><path d="m10 10v336h492v-336zm0 0" fill="#fa9600"/><path d="m388.410156 211.285156 70-40-70-40zm0 0" fill="#e6e6e6"/><path d="m502 0h-492c-5.523438 0-10 4.476562-10 10v416c0 5.523438 4.476562 10 10 10h64.4375l-32.285156 61.34375c-1.632813 3.097656-1.523438 6.828125.289062 9.824219 1.808594 3 5.054688 4.832031 8.558594 4.832031h54c3.714844 0 7.121094-2.058594 8.847656-5.34375l16.136719-30.65625h253.03125l16.136719 30.65625c1.726562 3.285156 5.132812 5.34375 8.847656 5.34375h54c3.503906 0 6.75-1.832031 8.5625-4.832031 1.808594-3 1.917969-6.726563.289062-9.824219l-32.289062-61.34375h63.4375c5.523438 0 10-4.476562 10-10v-416c0-5.523438-4.476562-10-10-10zm-56.5625 492h-31.398438l-16.136718-30.65625c-1.730469-3.285156-5.136719-5.34375-8.847656-5.34375h-265.109376c-3.710937 0-7.117187 2.058594-8.847656 5.34375l-16.136718 30.65625h-31.398438l29.472656-56h318.929688zm46.5625-76h-472v-60h472zm0-80h-472v-316h472zm0 0"/><path d="m226 395h60c5.523438 0 10-4.476562 10-10s-4.476562-10-10-10h-60c-5.523438 0-10 4.476562-10 10s4.476562 10 10 10zm0 0"/><path d="m146 395c5.519531 0 10-4.480469 10-10s-4.480469-10-10-10-10 4.480469-10 10 4.480469 10 10 10zm0 0"/><path d="m186 395c5.519531 0 10-4.480469 10-10s-4.480469-10-10-10-10 4.480469-10 10 4.480469 10 10 10zm0 0"/><path d="m366 395c5.519531 0 10-4.480469 10-10s-4.480469-10-10-10-10 4.480469-10 10 4.480469 10 10 10zm0 0"/><path d="m326 395c5.519531 0 10-4.480469 10-10s-4.480469-10-10-10-10 4.480469-10 10 4.480469 10 10 10zm0 0"/><path d="m383.390625 219.933594c3.058594 1.777344 6.914063 1.789062 9.980469.035156 0 0 69.925781-39.957031 70-40 6.558594-3.75 6.546875-13.621094 0-17.363281 0 0-69.988282-39.996094-70-40-6.464844-3.695313-14.960938 1.117187-14.960938 8.679687v80c0 3.566406 1.898438 6.859375 4.980469 8.648438zm15.019531-71.414063 39.84375 22.765625-39.84375 22.769532zm0 0"/><path d="m59.46875 218.082031c1.828125 1.164063 4.171875 1.769531 5.953125 1.769531h46.277344c4.179687 0 6.113281-5.589843 6.113281-8.96875 0-3.46875-1.953125-8.710937-6.148438-8.710937h-34.28125v-1.183594c0-2.101562 1.402344-4.398437 4.210938-6.898437 10.710938-9.523438 24.4375-15.394532 32.035156-28.058594 2.789063-4.644531 4.183594-9.597656 4.183594-14.851562 0-16.371094-15.230469-26.359376-30.421875-26.359376-7.855469 0-14.691406 2.277344-20.515625 6.828126-5.824219 4.546874-8.734375 10.59375-8.734375 18.132812 0 7.019531 2.992187 10.53125 8.980469 10.53125 4.34375 0 10.519531-2.453125 10.519531-7.691406 0-3.507813.921875-6.070313 2.765625-7.6875 3.738281-3.28125 11.195312-3.46875 14.621094.394531 4.457031 5.023437 2.167968 11.484375-1.777344 15.96875-9.585938 10.890625-23.839844 16.675781-32.496094 28.339844-2.78125 3.75-4.171875 7.5-4.171875 11.25v12.6875c0 1.9375 1.230469 3.449219 2.886719 4.507812zm0 0"/><path d="m137.707031 198.710938c.933594.089843 1.878907.113281 2.777344.109374 9.214844-.011718 18.425781-.023437 27.636719-.039062-.003906 4.308594-.011719 8.617188-.019532 12.921875 0 1.265625.003907 2.570313.5 3.734375.871094 2.058594 3.074219 3.226562 5.230469 3.808594 2.875.773437 5.953125.78125 8.832031.023437 2.148438-.566406 4.34375-1.714843 5.226563-3.753906.503906-1.167969.511719-2.480469.515625-3.753906.003906-4.359375.007812-8.722657.015625-13.082031 3.675781 1.210937 8.054687-.203126 10.335937-3.328126 2.277344-3.128906 2.28125-7.730468.007813-10.859374-2.277344-3.128907-6.652344-4.546876-10.332031-3.34375-.910156-4.535157 1.484375-10.003907-1.582032-13.464844-1.113281-1.253906-2.742187-1.917969-4.371093-2.316406-2.753907-.667969-5.667969-.667969-8.425781-.003907-1.628907.394531-3.269532 1.058594-4.378907 2.316407-3.066406 3.449218-.707031 8.894531-1.566406 13.429687-3.726563 0-7.453125 0-11.175781 0 7.320312-14.664063 14.644531-29.332031 21.964844-43.996094.949218-1.898437 1.921874-3.996093 1.4375-6.058593-.359376-1.535157-1.488282-2.789063-2.757813-3.726563-2.609375-1.929687-6.339844-2.980469-9.566406-2.277344-3.261719.710938-5.0625 3.132813-6.519531 5.957031-9.507813 18.457032-19.019532 36.917969-28.53125 55.375-1.519532 2.945313-3.023438 6.582032-1.269532 9.394532 1.246094 1.988281 3.589844 2.695312 6.015625 2.933594zm0 0"/><path d="m222.328125 225.828125c2.394531.054687 4.761719-.972656 5.851563-3.246094 0 0 45.605468-93.410156 45.757812-93.730469 1.25-2.558593.238281-5.691406-1.882812-7.410156-3.21875-2.613281-8.703126-2.914062-10.726563 1.300782 0 0-45.574219 93.617187-45.628906 93.730468-1.203125 2.472656-.5 5.226563 1.429687 7.214844 1.316406 1.355469 3.269532 2.101562 5.199219 2.140625zm0 0"/><path d="m294.125 155.683594c2.164062 1.269531 5.085938 1.769531 7.113281 1.769531 2.6875 0 5.070313-.605469 7.152344-1.820313 2.078125-1.210937 3.121094-2.6875 3.121094-4.417968v-8.710938h23.269531v9.097656l-31.980469 55.382813c-2.207031 3.820313-.175781 8.21875 3.054688 10.660156 2.640625 1.992188 5.609375 2.988281 8.90625 2.988281 2.21875 0 4.609375-.617187 5.71875-2.730468l30.417969-58.238282c2.773437-5.199218 4.160156-9.316406 4.160156-12.351562 0 0 0-16.207031 0-16.25 0-3.855469-5.640625-6.238281-8.839844-6.238281h-46.148438c-3.351562 0-8.839843 2.191406-8.839843 6.238281v20.152344c0 2.035156 1.21875 3.480468 2.894531 4.46875zm0 0"/></svg>