<?xml version="1.0" encoding="iso-8859-1"?>
<!-- Generator: Adobe Illustrator 19.0.0, SVG Export Plug-In . SVG Version: 6.00 Build 0)  -->
<svg version="1.1" id="Capa_1" xmlns="http://www.w3.org/2000/svg" xmlns:xlink="http://www.w3.org/1999/xlink" x="0px" y="0px"
	 viewBox="0 0 512 512" style="enable-background:new 0 0 512 512;" xml:space="preserve" width="20" height="20">
<path style="fill:#6F6571;" d="M495.484,177.548H132.129c-9.122,0-16.516,7.395-16.516,16.516V425.29
	c0,9.122,7.395,16.516,16.516,16.516h363.355c9.122,0,16.516-7.395,16.516-16.516V194.065
	C512,184.943,504.605,177.548,495.484,177.548z"/>
<path style="fill:#5D5360;" d="M132.129,177.548c-9.121,0-16.516,7.394-16.516,16.516v132.129h289.032
	c22.767,0,41.29-18.523,41.29-41.29V177.548H132.129z"/>
<rect x="132.13" y="194.06" style="fill:#FFFFFF;" width="363.36" height="214.71"/>
<path style="fill:#EDEBED;" d="M132.129,194.065v132.129h272.516c22.767,0,41.29-18.523,41.29-41.29v-90.839H132.129z"/>
<path style="fill:#6F6571;" d="M148.645,441.806l-12.811,25.622c-1.702,3.405,0.773,7.41,4.58,7.41h9.648
	c4.38,0,8.581-1.74,11.679-4.837l28.195-28.195H148.645z"/>
<path style="fill:#FF8087;" d="M404.645,309.677H24.774C11.092,309.677,0,298.586,0,284.904V136.258
	c0-13.682,11.092-24.774,24.774-24.774h379.871c13.682,0,24.774,11.092,24.774,24.774v148.645
	C429.419,298.586,418.328,309.677,404.645,309.677z"/>
<g>
	<path style="fill:#FFFFFF;" d="M132.129,243.613h-41.29V169.29c0-4.565-3.694-8.258-8.258-8.258c-4.565,0-8.258,3.694-8.258,8.258
		v82.581c0,4.565,3.694,8.258,8.258,8.258h49.548c4.565,0,8.258-3.694,8.258-8.258S136.694,243.613,132.129,243.613z"/>
	<path style="fill:#FFFFFF;" d="M163.782,161.032c-4.565,0-8.258,3.694-8.258,8.258v82.581c0,4.565,3.694,8.258,8.258,8.258
		s8.258-3.694,8.258-8.258V169.29C172.04,164.726,168.347,161.032,163.782,161.032z"/>
	<path style="fill:#FFFFFF;" d="M271.089,161.758c-4.161-1.863-9.04-0.016-10.919,4.145l-29.63,65.847l-29.629-65.847
		c-1.871-4.169-6.766-6.024-10.919-4.145c-4.161,1.871-6.016,6.758-4.145,10.919l37.161,82.581c1.339,2.968,4.282,4.871,7.532,4.871
		s6.194-1.903,7.532-4.871l37.161-82.581C277.105,168.516,275.25,163.629,271.089,161.758z"/>
	<path style="fill:#FFFFFF;" d="M355.097,243.613h-49.548v-24.774h41.29c4.565,0,8.258-3.694,8.258-8.258s-3.694-8.258-8.258-8.258
		h-41.29v-24.774h49.548c4.565,0,8.258-3.694,8.258-8.258c0-4.565-3.694-8.258-8.258-8.258H297.29c-4.565,0-8.258,3.694-8.258,8.258
		v82.581c0,4.565,3.694,8.258,8.258,8.258h57.806c4.565,0,8.258-3.694,8.258-8.258S359.661,243.613,355.097,243.613z"/>
</g>
<path style="fill:#DBD9DC;" d="M462.452,144.516c-4.565,0-8.258-3.694-8.258-8.258c0-27.323-22.226-49.548-49.548-49.548
	c-4.565,0-8.258-3.694-8.258-8.258s3.694-8.258,8.258-8.258c36.427,0,66.065,29.637,66.065,66.065
	C470.71,140.823,467.016,144.516,462.452,144.516z"/>
<path style="fill:#EDEBED;" d="M495.484,144.516c-4.565,0-8.258-3.694-8.258-8.258c0-45.532-37.048-82.581-82.581-82.581
	c-4.565,0-8.258-3.694-8.258-8.258s3.694-8.258,8.258-8.258c54.645,0,99.097,44.452,99.097,99.097
	C503.742,140.823,500.048,144.516,495.484,144.516z"/>
<path style="fill:#E6646E;" d="M24.774,218.839V111.484C11.092,111.484,0,122.576,0,136.258v148.645
	c0,13.682,11.092,24.774,24.774,24.774h379.871c13.682,0,24.774-11.092,24.774-24.774H90.839
	C54.352,284.904,24.774,255.325,24.774,218.839z"/>
<polygon style="fill:#5D5360;" points="140.387,458.323 173.419,458.323 189.935,441.806 148.645,441.806 "/>
<path style="fill:#6F6571;" d="M478.968,441.806l12.811,25.622c1.702,3.405-0.773,7.41-4.58,7.41h-9.648
	c-4.38,0-8.581-1.74-11.679-4.837l-28.195-28.195H478.968z"/>
<polygon style="fill:#5D5360;" points="487.226,458.323 454.194,458.323 437.677,441.806 478.968,441.806 "/>
<g>
</g>
<g>
</g>
<g>
</g>
<g>
</g>
<g>
</g>
<g>
</g>
<g>
</g>
<g>
</g>
<g>
</g>
<g>
</g>
<g>
</g>
<g>
</g>
<g>
</g>
<g>
</g>
<g>
</g>
</svg>
