<svg width="20" height="20" viewBox="0 0 496 496" xmlns="http://www.w3.org/2000/svg" xmlns:xlink="http://www.w3.org/1999/xlink"><linearGradient id="a" gradientUnits="userSpaceOnUse" x1="248" x2="248" y1="496" y2="0"><stop offset="0" stop-color="#9f2fff"/><stop offset="1" stop-color="#0bb1d3"/></linearGradient><path d="m432 296.023438v-52.710938l16-16v-27.3125c0-110.28125-89.71875-200-200-200s-200 89.71875-200 200v27.3125l16 16v52.710938c-37.542969 15.703124-64 52.800781-64 95.976562 0 57.34375 46.65625 104 104 104h40v-92.382812c20.726562 36.023437 59.535156 60.382812 104 60.382812s83.273438-24.359375 104-60.382812v92.382812h40c57.34375 0 104-46.65625 104-104 0-43.175781-26.457031-80.273438-64-95.976562zm-368-75.335938v-20.6875c0-101.457031 82.542969-184 184-184s184 82.542969 184 184v20.6875l-16 16v54.214844c-7.71875-1.832032-15.726562-2.902344-24-2.902344v-80c0-29.359375-8.871094-56.671875-24.023438-79.464844l22.0625-24.152344-4.207031-5.335937c-33.625-42.605469-83.863281-67.046875-137.832031-67.046875s-104.207031 24.441406-137.832031 67.039062l-4.207031 5.335938 22.0625 24.152344c-15.152344 22.800781-24.023438 50.113281-24.023438 79.472656v80c-8.273438 0-16.28125 1.070312-24 2.902344v-54.214844zm184 3.3125c-45.945312 0-85.894531 25.984375-106.046875 64h-21.953125v-80c0-70.574219 57.425781-128 128-128s128 57.425781 128 128v80h-21.953125c-20.152344-38.015625-60.101563-64-106.046875-64zm0-160c-44.199219 0-83.777344 20.054688-110.207031 51.503906l-10.753907-11.777344c30.464844-35.503906 74.167969-55.726562 120.960938-55.726562s90.496094 20.222656 120.96875 55.726562l-10.753906 11.777344c-26.4375-31.449218-66.015625-51.503906-110.214844-51.503906zm-232 328c0-40.191406 27.121094-74.105469 64-84.59375v12.59375h-16v16h16v16h-16v16h16v16h-16v16h16v16h-16v16h16v16h-16v16h16v12.59375c-36.878906-10.488281-64-44.402344-64-84.59375zm112 88h-24c-2.703125 0-5.359375-.167969-8-.40625v-175.1875c2.640625-.238281 5.296875-.40625 8-.40625h24zm120-32c-57.34375 0-104-46.65625-104-104s46.65625-104 104-104 104 46.65625 104 104-46.65625 104-104 104zm120 32v-176h24c2.703125 0 5.359375.167969 8 .40625v175.195312c-2.640625.230469-5.296875.398438-8 .398438zm48-3.40625v-12.59375h16v-16h-16v-16h16v-16h-16v-16h16v-16h-16v-16h16v-16h-16v-16h16v-16h-16v-12.59375c36.878906 10.480469 64 44.394531 64 84.59375s-27.121094 74.105469-64 84.59375zm-128-180.59375c0 12.519531-5.984375 24.488281-16 32l-16 12v28h-16v-36l22.398438-16.800781c6.007812-4.511719 9.601562-11.6875 9.601562-19.199219 0-13.230469-10.769531-24-24-24s-24 10.769531-24 24v8h-16v-8c0-22.054688 17.945312-40 40-40s40 17.945312 40 40zm-40 88c-13.230469 0-24 10.769531-24 24s10.769531 24 24 24 24-10.769531 24-24-10.769531-24-24-24zm0 32c-4.40625 0-8-3.585938-8-8s3.59375-8 8-8 8 3.585938 8 8-3.59375 8-8 8zm0 0" fill="url(#a)"/></svg>